# xmcd
#
# Track frame offsets: 
#        150
#        20075
#        45032
#        68950
#        97792
#        122000
#        147902
#        167172
#
# Disc length: 2518 seconds
#
# Revision: 2
# Processed by: cddbd v1.5.1PL0 Copyright (c) Steve Scherf et al.
# Submitted via: ExactAudioCopy v0.95a5
#
DISCID=6109d408
DTITLE=John Cephas and Phil Wiggins - Dog Days of August
DYEAR=1900
DGENRE=
TTITLE0=Reno Factory
TTITLE1=Cherryball
TTITLE2=Dog Days of August
TTITLE3=Staggerlee
TTITLE4=Hard Time Killing Floor Blues
TTITLE5=John Hentry
TTITLE6=I Saw the Light
TTITLE7=Robert
EXTD=Flying Fish Records, Inc. FF70394\n1304 W. Schubert\nChicago, Ill
EXTD=inois 60614
EXTT0=
EXTT1=
EXTT2=
EXTT3=
EXTT4=
EXTT5=
EXTT6=
EXTT7=
PLAYORDER=
